<mxfile host="app.diagrams.net" modified="2024-06-16T16:44:25.639Z" agent="Mozilla/5.0 (Windows NT 10.0; Win64; x64) AppleWebKit/537.36 (KHTML, like Gecko) Chrome/126.0.0.0 Safari/537.36" etag="S2GdbRHF1pXpwZesqt3y" version="24.5.4" type="device">
  <diagram name="Page-1" id="pATA3CXBWAuTIWqf7mzF">
    <mxGraphModel dx="587" dy="539" grid="1" gridSize="10" guides="1" tooltips="1" connect="0" arrows="1" fold="1" page="1" pageScale="1" pageWidth="850" pageHeight="1100" math="0" shadow="0">
      <root>
        <mxCell id="0" />
        <mxCell id="1" parent="0" />
        <mxCell id="U-R58dVXDF7VYLO3l9_w-2" value="lasermethods" style="swimlane;fontStyle=0;childLayout=stackLayout;horizontal=1;startSize=26;fillColor=none;horizontalStack=0;resizeParent=1;resizeParentMax=0;resizeLast=0;collapsible=1;marginBottom=0;whiteSpace=wrap;html=1;" parent="1" vertex="1">
          <mxGeometry x="240" y="200" width="220" height="220" as="geometry">
            <mxRectangle x="240" y="200" width="110" height="30" as="alternateBounds" />
          </mxGeometry>
        </mxCell>
        <mxCell id="U-R58dVXDF7VYLO3l9_w-6" value="&lt;font style=&quot;font-size: 12px;&quot;&gt;+ id: INTEGER, AUTO_INCREMENT,&lt;span style=&quot;background-color: var(--bg-secondary); color: var(--tw-prose-pre-code); font-family: &amp;quot;Roboto Mono&amp;quot;, ui-monospace, SF-Regular, &amp;quot;SF Mono&amp;quot;, Menlo, Consolas, &amp;quot;Liberation Mono&amp;quot;, monospace; letter-spacing: -0.176px;&quot;&gt;&amp;nbsp;&lt;/span&gt;&lt;span style=&quot;background-color: initial;&quot;&gt;PRIMARY KEY&lt;/span&gt;&lt;/font&gt;" style="text;strokeColor=none;fillColor=none;align=left;verticalAlign=top;spacingLeft=4;spacingRight=4;overflow=hidden;rotatable=0;points=[[0,0.5],[1,0.5]];portConstraint=eastwest;whiteSpace=wrap;html=1;" parent="U-R58dVXDF7VYLO3l9_w-2" vertex="1">
          <mxGeometry y="26" width="220" height="44" as="geometry" />
        </mxCell>
        <mxCell id="U-R58dVXDF7VYLO3l9_w-3" value="+ distance: FLOAT" style="text;strokeColor=none;fillColor=none;align=left;verticalAlign=top;spacingLeft=4;spacingRight=4;overflow=hidden;rotatable=0;points=[[0,0.5],[1,0.5]];portConstraint=eastwest;whiteSpace=wrap;html=1;" parent="U-R58dVXDF7VYLO3l9_w-2" vertex="1">
          <mxGeometry y="70" width="220" height="25" as="geometry" />
        </mxCell>
        <mxCell id="U-R58dVXDF7VYLO3l9_w-4" value="+ speed: FLOAT" style="text;strokeColor=none;fillColor=none;align=left;verticalAlign=top;spacingLeft=4;spacingRight=4;overflow=hidden;rotatable=0;points=[[0,0.5],[1,0.5]];portConstraint=eastwest;whiteSpace=wrap;html=1;" parent="U-R58dVXDF7VYLO3l9_w-2" vertex="1">
          <mxGeometry y="95" width="220" height="25" as="geometry" />
        </mxCell>
        <mxCell id="U-R58dVXDF7VYLO3l9_w-5" value="+ power: INTEGER" style="text;strokeColor=none;fillColor=none;align=left;verticalAlign=top;spacingLeft=4;spacingRight=4;overflow=hidden;rotatable=0;points=[[0,0.5],[1,0.5]];portConstraint=eastwest;whiteSpace=wrap;html=1;" parent="U-R58dVXDF7VYLO3l9_w-2" vertex="1">
          <mxGeometry y="120" width="220" height="25" as="geometry" />
        </mxCell>
        <mxCell id="U-R58dVXDF7VYLO3l9_w-8" value="+ Pattern VARCHAR&lt;span style=&quot;color: rgba(0, 0, 0, 0); font-family: monospace; font-size: 0px; text-wrap: nowrap;&quot;&gt;%3CmxGraphModel%3E%3Croot%3E%3CmxCell%20id%3D%220%22%2F%3E%3CmxCell%20id%3D%221%22%20parent%3D%220%22%2F%3E%3CmxCell%20id%3D%222%22%20value%3D%22%2B%20Power%3A%20Integer%22%20style%3D%22text%3BstrokeColor%3Dnone%3BfillColor%3Dnone%3Balign%3Dleft%3BverticalAlign%3Dtop%3BspacingLeft%3D4%3BspacingRight%3D4%3Boverflow%3Dhidden%3Brotatable%3D0%3Bpoints%3D%5B%5B0%2C0.5%5D%2C%5B1%2C0.5%5D%5D%3BportConstraint%3Deastwest%3BwhiteSpace%3Dwrap%3Bhtml%3D1%3B%22%20vertex%3D%221%22%20parent%3D%221%22%3E%3CmxGeometry%20x%3D%22240%22%20y%3D%22324%22%20width%3D%22140%22%20height%3D%2226%22%20as%3D%22geometry%22%2F%3E%3C%2FmxCell%3E%3C%2Froot%3E%3C%2FmxGraphModel%3E&lt;/span&gt;" style="text;strokeColor=none;fillColor=none;align=left;verticalAlign=top;spacingLeft=4;spacingRight=4;overflow=hidden;rotatable=0;points=[[0,0.5],[1,0.5]];portConstraint=eastwest;whiteSpace=wrap;html=1;" parent="U-R58dVXDF7VYLO3l9_w-2" vertex="1">
          <mxGeometry y="145" width="220" height="25" as="geometry" />
        </mxCell>
        <mxCell id="U-R58dVXDF7VYLO3l9_w-10" value="+ Filename: VARCHAR" style="text;strokeColor=none;fillColor=none;align=left;verticalAlign=top;spacingLeft=4;spacingRight=4;overflow=hidden;rotatable=0;points=[[0,0.5],[1,0.5]];portConstraint=eastwest;whiteSpace=wrap;html=1;" parent="U-R58dVXDF7VYLO3l9_w-2" vertex="1">
          <mxGeometry y="170" width="220" height="25" as="geometry" />
        </mxCell>
        <mxCell id="U-R58dVXDF7VYLO3l9_w-9" value="+ Description: VARCHAR" style="text;strokeColor=none;fillColor=none;align=left;verticalAlign=top;spacingLeft=4;spacingRight=4;overflow=hidden;rotatable=0;points=[[0,0.5],[1,0.5]];portConstraint=eastwest;whiteSpace=wrap;html=1;" parent="U-R58dVXDF7VYLO3l9_w-2" vertex="1">
          <mxGeometry y="195" width="220" height="25" as="geometry" />
        </mxCell>
        <mxCell id="U-R58dVXDF7VYLO3l9_w-13" value="tests" style="swimlane;fontStyle=0;childLayout=stackLayout;horizontal=1;startSize=26;fillColor=none;horizontalStack=0;resizeParent=1;resizeParentMax=0;resizeLast=0;collapsible=1;marginBottom=0;whiteSpace=wrap;html=1;" parent="1" vertex="1">
          <mxGeometry x="510" y="200" width="270" height="212" as="geometry" />
        </mxCell>
        <mxCell id="U-R58dVXDF7VYLO3l9_w-14" value="+ specimen_id: VARCHAR, PRIMARY KEY" style="text;strokeColor=none;fillColor=none;align=left;verticalAlign=top;spacingLeft=4;spacingRight=4;overflow=hidden;rotatable=0;points=[[0,0.5],[1,0.5]];portConstraint=eastwest;whiteSpace=wrap;html=1;" parent="U-R58dVXDF7VYLO3l9_w-13" vertex="1">
          <mxGeometry y="26" width="270" height="44" as="geometry" />
        </mxCell>
        <mxCell id="U-R58dVXDF7VYLO3l9_w-16" value="+ file_path: VARCHAR" style="text;strokeColor=none;fillColor=none;align=left;verticalAlign=top;spacingLeft=4;spacingRight=4;overflow=hidden;rotatable=0;points=[[0,0.5],[1,0.5]];portConstraint=eastwest;whiteSpace=wrap;html=1;" parent="U-R58dVXDF7VYLO3l9_w-13" vertex="1">
          <mxGeometry y="70" width="270" height="26" as="geometry" />
        </mxCell>
        <mxCell id="U-R58dVXDF7VYLO3l9_w-15" value="+ batch: VARCHAR, FOREIGN_KEY" style="text;strokeColor=none;fillColor=none;align=left;verticalAlign=top;spacingLeft=4;spacingRight=4;overflow=hidden;rotatable=0;points=[[0,0.5],[1,0.5]];portConstraint=eastwest;whiteSpace=wrap;html=1;" parent="U-R58dVXDF7VYLO3l9_w-13" vertex="1">
          <mxGeometry y="96" width="270" height="26" as="geometry" />
        </mxCell>
        <mxCell id="dqV_UmQeAMMQXhT9ZASO-2" value="+ laser_profile: VARCHAR, FOREIGN_KEY" style="text;strokeColor=none;fillColor=none;align=left;verticalAlign=top;spacingLeft=4;spacingRight=4;overflow=hidden;rotatable=0;points=[[0,0.5],[1,0.5]];portConstraint=eastwest;whiteSpace=wrap;html=1;" vertex="1" parent="U-R58dVXDF7VYLO3l9_w-13">
          <mxGeometry y="122" width="270" height="38" as="geometry" />
        </mxCell>
        <mxCell id="dqV_UmQeAMMQXhT9ZASO-1" value="+ ultimate_tensile_strength: DECIMAL(9, 2)" style="text;strokeColor=none;fillColor=none;align=left;verticalAlign=top;spacingLeft=4;spacingRight=4;overflow=hidden;rotatable=0;points=[[0,0.5],[1,0.5]];portConstraint=eastwest;whiteSpace=wrap;html=1;" vertex="1" parent="U-R58dVXDF7VYLO3l9_w-13">
          <mxGeometry y="160" width="270" height="26" as="geometry" />
        </mxCell>
        <mxCell id="dqV_UmQeAMMQXhT9ZASO-3" value="+ strain_at_break: DECIMAL(9, 3)" style="text;strokeColor=none;fillColor=none;align=left;verticalAlign=top;spacingLeft=4;spacingRight=4;overflow=hidden;rotatable=0;points=[[0,0.5],[1,0.5]];portConstraint=eastwest;whiteSpace=wrap;html=1;" vertex="1" parent="U-R58dVXDF7VYLO3l9_w-13">
          <mxGeometry y="186" width="270" height="26" as="geometry" />
        </mxCell>
        <mxCell id="dqV_UmQeAMMQXhT9ZASO-5" value="batches" style="swimlane;childLayout=stackLayout;horizontal=1;startSize=50;horizontalStack=0;rounded=1;fontSize=14;fontStyle=0;strokeWidth=2;resizeParent=0;resizeLast=1;shadow=0;dashed=0;align=center;arcSize=4;whiteSpace=wrap;html=1;" vertex="1" parent="1">
          <mxGeometry x="430" y="430" width="290" height="160" as="geometry" />
        </mxCell>
        <mxCell id="dqV_UmQeAMMQXhT9ZASO-6" value="+ id: INTEGER PRIMARY KEY&lt;br&gt;+ laser_profile_id: INTEGER&lt;div&gt;+ Al_batch_id: INTEGER&lt;br&gt;+ polymer_upper: VARCHAR&lt;div&gt;+ polymer_lower: VARCHAR&lt;/div&gt;&lt;div&gt;+ Al_mass_mg: DECIMAL(9, 3)&lt;/div&gt;&lt;div&gt;&lt;br&gt;&lt;/div&gt;&lt;/div&gt;" style="align=left;strokeColor=none;fillColor=none;spacingLeft=4;fontSize=12;verticalAlign=top;resizable=0;rotatable=0;part=1;html=1;" vertex="1" parent="dqV_UmQeAMMQXhT9ZASO-5">
          <mxGeometry y="50" width="290" height="110" as="geometry" />
        </mxCell>
        <mxCell id="dqV_UmQeAMMQXhT9ZASO-7" value="tests" style="swimlane;childLayout=stackLayout;horizontal=1;startSize=50;horizontalStack=0;rounded=1;fontSize=14;fontStyle=0;strokeWidth=2;resizeParent=0;resizeLast=1;shadow=0;dashed=0;align=center;arcSize=4;whiteSpace=wrap;html=1;" vertex="1" parent="1">
          <mxGeometry x="240" y="470" width="160" height="120" as="geometry" />
        </mxCell>
        <mxCell id="dqV_UmQeAMMQXhT9ZASO-8" value="+ specimen_id: VARCHAR,&amp;nbsp;&lt;br&gt;+Attribute2&lt;br&gt;+Attribute3" style="align=left;strokeColor=none;fillColor=none;spacingLeft=4;fontSize=12;verticalAlign=top;resizable=0;rotatable=0;part=1;html=1;" vertex="1" parent="dqV_UmQeAMMQXhT9ZASO-7">
          <mxGeometry y="50" width="160" height="70" as="geometry" />
        </mxCell>
      </root>
    </mxGraphModel>
  </diagram>
</mxfile>
